<?xml version="1.0" encoding="UTF-8"?>
<svg version="1.1" xmlns="http://www.w3.org/2000/svg" width="512" height="512">
<path d="M0 0 C4.97447267 2.3095766 7.31899945 5.280301 10 10 C10.48101807 13.3789978 10.48101807 13.3789978 10.45410156 17.10693359 C10.45468567 17.79055969 10.45526978 18.47418579 10.45587158 19.17852783 C10.45310371 21.41902975 10.42207681 23.65817051 10.390625 25.8984375 C10.38315791 27.45927199 10.37746719 29.02011589 10.37347412 30.58096313 C10.35825441 34.67468478 10.31900507 38.76783222 10.2746582 42.86132812 C10.23362584 47.04419183 10.21544617 51.22714898 10.1953125 55.41015625 C10.15250648 63.60703335 10.08430054 71.8034451 10 80 C10.84445175 79.98667633 10.84445175 79.98667633 11.70596313 79.9730835 C17.57844871 79.8844193 23.45074336 79.8241869 29.32373047 79.78027344 C31.51391324 79.76018893 33.70404259 79.73291583 35.89404297 79.69824219 C39.04668376 79.64958591 42.19861404 79.62699922 45.3515625 79.609375 C46.32678864 79.58872986 47.30201477 79.56808472 48.30679321 79.54681396 C54.04230774 79.54493147 57.57564749 79.9760376 62 84 C66.67818558 89.42207331 66.56755079 94.03252611 66.50793457 100.85546875 C66.51417453 101.95075394 66.5204145 103.04603912 66.52684355 104.17451477 C66.54280207 107.84572862 66.53015743 111.51628118 66.51757812 115.1875 C66.52299794 117.81901436 66.5301198 120.45052569 66.53881836 123.08203125 C66.55659815 129.48817538 66.55276609 135.89413197 66.5411678 142.30028343 C66.53213159 147.50700799 66.53091028 152.71368001 66.53526306 157.92041016 C66.53587599 158.66166169 66.53648893 159.40291323 66.53712043 160.16662693 C66.53839934 161.67249935 66.5396962 163.17837176 66.5410108 164.68424416 C66.55241501 178.80243328 66.53930542 192.92051849 66.51780933 207.03869057 C66.49993847 219.15084575 66.50304262 231.26284758 66.52148438 243.375 C66.54289393 257.44291203 66.55131638 271.51073301 66.53903532 285.57865906 C66.53776113 287.07896931 66.53650365 288.57927957 66.53526306 290.07958984 C66.53433741 291.18684087 66.53433741 291.18684087 66.53339306 292.31646061 C66.5299404 297.51649729 66.53576666 302.71647618 66.54518127 307.91650391 C66.55757584 314.91628611 66.54874225 321.91577373 66.52560425 328.91552734 C66.52030882 331.48664874 66.52184508 334.05779449 66.53065491 336.62890625 C66.54156035 340.13444564 66.52790568 343.63905158 66.50793457 347.14453125 C66.51685746 348.16573563 66.52578034 349.18694 66.53497362 350.23908997 C66.47104604 356.01100172 65.92196996 359.45438968 62 364 C56.77882265 368.74867708 52.0456937 368.53233704 45.3515625 368.390625 C44.33903412 368.38496521 43.32650574 368.37930542 42.28329468 368.37347412 C39.06337323 368.35116254 35.8445826 368.30097472 32.625 368.25 C30.43621404 368.22992831 28.24741056 368.21167871 26.05859375 368.1953125 C20.70534622 368.15131505 15.35275392 368.08445518 10 368 C10.00888245 369.2645401 10.01776489 370.5290802 10.0269165 371.8319397 C10.10800971 383.75009824 10.16796913 395.66820079 10.20724869 407.58657265 C10.22812162 413.71391933 10.25643453 419.84104324 10.30175781 425.96826172 C10.3452251 431.88158736 10.36913932 437.79469876 10.37950897 443.70817184 C10.38689868 445.96402738 10.40132899 448.21987122 10.42292023 450.47563553 C10.45196516 453.63587008 10.45595544 456.79521981 10.45410156 459.95556641 C10.46848267 460.88777008 10.48286377 461.81997375 10.49768066 462.78042603 C10.46220149 468.37132032 9.74037387 471.56917563 6 476 C2.18069828 479.62833663 -0.88279006 480.31000458 -6 480.5 C-11.11720994 480.31000458 -14.18069828 479.62833663 -18 476 C-22.46740731 470.70793619 -22.55607711 466.56576689 -22.45410156 459.95556641 C-22.45468567 458.95982605 -22.45526978 457.96408569 -22.45587158 456.93817139 C-22.45309303 453.65894263 -22.42201089 450.38063175 -22.390625 447.1015625 C-22.38316182 444.82327776 -22.37746925 442.54498658 -22.37347412 440.26669312 C-22.35822399 434.27917666 -22.31894697 428.2920502 -22.2746582 422.3046875 C-22.23369244 416.19145991 -22.21546028 410.07816912 -22.1953125 403.96484375 C-22.15245257 391.97639144 -22.08420832 379.98822819 -22 368 C-22.56296783 368.00888245 -23.12593567 368.01776489 -23.70596313 368.0269165 C-29.57844871 368.1155807 -35.45074336 368.1758131 -41.32373047 368.21972656 C-43.51391324 368.23981107 -45.70404259 368.26708417 -47.89404297 368.30175781 C-51.04668376 368.35041409 -54.19861404 368.37300078 -57.3515625 368.390625 C-58.32678864 368.41127014 -59.30201477 368.43191528 -60.30679321 368.45318604 C-66.04230774 368.45506853 -69.57564749 368.0239624 -74 364 C-78.67818558 358.57792669 -78.56755079 353.96747389 -78.50793457 347.14453125 C-78.51729451 345.50160347 -78.51729451 345.50160347 -78.52684355 343.82548523 C-78.54280207 340.15427138 -78.53015743 336.48371882 -78.51757812 332.8125 C-78.52299794 330.18098564 -78.5301198 327.54947431 -78.53881836 324.91796875 C-78.55659815 318.51182462 -78.55276609 312.10586803 -78.5411678 305.69971657 C-78.53213159 300.49299201 -78.53091028 295.28631999 -78.53526306 290.07958984 C-78.53587599 289.33833831 -78.53648893 288.59708677 -78.53712043 287.83337307 C-78.53839934 286.32750065 -78.5396962 284.82162824 -78.5410108 283.31575584 C-78.55241501 269.19756672 -78.53930542 255.07948151 -78.51780933 240.96130943 C-78.49993847 228.84915425 -78.50304262 216.73715242 -78.52148438 204.625 C-78.54289393 190.55708797 -78.55131638 176.48926699 -78.53903532 162.42134094 C-78.53776113 160.92103069 -78.53650365 159.42072043 -78.53526306 157.92041016 C-78.53464596 157.1822428 -78.53402886 156.44407545 -78.53339306 155.68353939 C-78.5299404 150.48350271 -78.53576666 145.28352382 -78.54518127 140.08349609 C-78.55757584 133.08371389 -78.54874225 126.08422627 -78.52560425 119.08447266 C-78.52030882 116.51335126 -78.52184508 113.94220551 -78.53065491 111.37109375 C-78.54156035 107.86555436 -78.52790568 104.36094842 -78.50793457 100.85546875 C-78.51685746 99.83426437 -78.52578034 98.81306 -78.53497362 97.76091003 C-78.47104604 91.98899828 -77.92196996 88.54561032 -74 84 C-68.77882265 79.25132292 -64.0456937 79.46766296 -57.3515625 79.609375 C-56.33903412 79.61503479 -55.32650574 79.62069458 -54.28329468 79.62652588 C-51.06337323 79.64883746 -47.8445826 79.69902528 -44.625 79.75 C-42.43621404 79.77007169 -40.24741056 79.78832129 -38.05859375 79.8046875 C-32.70534622 79.84868495 -27.35275392 79.91554482 -22 80 C-22.00888245 79.13635834 -22.01776489 78.27271667 -22.0269165 77.38290405 C-22.10716339 69.2320842 -22.16801565 61.08139759 -22.20724869 52.93027306 C-22.22809718 48.73996462 -22.25636416 44.54998341 -22.30175781 40.35986328 C-22.34531419 36.31387758 -22.3691577 32.26820605 -22.37950897 28.22200394 C-22.38688286 26.68065065 -22.40128257 25.13931398 -22.42292023 23.59809494 C-22.45208611 21.43400064 -22.45595076 19.27119375 -22.45410156 17.10693359 C-22.46298401 15.87671478 -22.47186646 14.64649597 -22.48101807 13.3789978 C-21.74442897 8.20469542 -19.21864835 5.15771594 -15.5 1.625 C-10.33499991 -0.77303575 -5.5997712 -0.75381535 0 0 Z " fill="#FFFFFF" transform="translate(374,16)"/>
<path d="M0 0 C4.65373756 2.16066387 7.97652896 5.24248699 10 10 C10.5678391 13.84040075 10.50562416 17.63740727 10.45410156 21.51318359 C10.45468567 22.66498108 10.45526978 23.81677856 10.45587158 25.003479 C10.45308984 28.80210742 10.42199167 32.59994653 10.390625 36.3984375 C10.38316298 39.03544689 10.37746987 41.67246184 10.37347412 44.30947876 C10.36106163 50.53554145 10.32826381 56.76132185 10.28807616 62.98726046 C10.24330434 70.07791397 10.22135788 77.16858124 10.20129442 84.259341 C10.15952936 98.83970602 10.08921119 113.41984906 10 128 C10.84445175 127.98667633 10.84445175 127.98667633 11.70596313 127.9730835 C17.57844871 127.8844193 23.45074336 127.8241869 29.32373047 127.78027344 C31.51391324 127.76018893 33.70404259 127.73291583 35.89404297 127.69824219 C39.04668376 127.64958591 42.19861404 127.62699922 45.3515625 127.609375 C46.32678864 127.58872986 47.30201477 127.56808472 48.30679321 127.54681396 C54.04230774 127.54493147 57.57564749 127.9760376 62 132 C66.67818558 137.42207331 66.56755079 142.03252611 66.50793457 148.85546875 C66.51417453 149.95075394 66.5204145 151.04603912 66.52684355 152.17451477 C66.54280207 155.84572862 66.53015743 159.51628118 66.51757812 163.1875 C66.52299794 165.81901436 66.5301198 168.45052569 66.53881836 171.08203125 C66.55659815 177.48817538 66.55276609 183.89413197 66.5411678 190.30028343 C66.53213159 195.50700799 66.53091028 200.71368001 66.53526306 205.92041016 C66.53587599 206.66166169 66.53648893 207.40291323 66.53712043 208.16662693 C66.53839934 209.67249935 66.5396962 211.17837176 66.5410108 212.68424416 C66.55241501 226.80243328 66.53930542 240.92051849 66.51780933 255.03869057 C66.49993847 267.15084575 66.50304262 279.26284758 66.52148438 291.375 C66.54289393 305.44291203 66.55131638 319.51073301 66.53903532 333.57865906 C66.53776113 335.07896931 66.53650365 336.57927957 66.53526306 338.07958984 C66.53433741 339.18684087 66.53433741 339.18684087 66.53339306 340.31646061 C66.5299404 345.51649729 66.53576666 350.71647618 66.54518127 355.91650391 C66.55757584 362.91628611 66.54874225 369.91577373 66.52560425 376.91552734 C66.52030882 379.48664874 66.52184508 382.05779449 66.53065491 384.62890625 C66.54156035 388.13444564 66.52790568 391.63905158 66.50793457 395.14453125 C66.51685746 396.16573563 66.52578034 397.18694 66.53497362 398.23908997 C66.47104604 404.01100172 65.92196996 407.45438968 62 412 C56.77882265 416.74867708 52.0456937 416.53233704 45.3515625 416.390625 C44.33903412 416.38496521 43.32650574 416.37930542 42.28329468 416.37347412 C39.06337323 416.35116254 35.8445826 416.30097472 32.625 416.25 C30.43621404 416.22992831 28.24741056 416.21167871 26.05859375 416.1953125 C20.70534622 416.15131505 15.35275392 416.08445518 10 416 C10.00888245 416.66319244 10.01776489 417.32638489 10.0269165 418.00967407 C10.11549956 424.92026134 10.17578015 431.83068696 10.21972656 438.74169922 C10.23982563 441.31989088 10.26710941 443.89803704 10.30175781 446.47607422 C10.35034847 450.18468461 10.37298658 453.89269156 10.390625 457.6015625 C10.41127014 458.75177887 10.43191528 459.90199524 10.45318604 461.08706665 C10.45494774 467.38852193 10.27883437 471.23604813 6 476 C2.18069828 479.62833663 -0.88279006 480.31000458 -6 480.5 C-11.11720994 480.31000458 -14.18069828 479.62833663 -18 476 C-23.04832683 470.37931362 -22.5215801 464.89755008 -22.390625 457.6015625 C-22.38496521 456.41146576 -22.37930542 455.22136902 -22.37347412 453.99520874 C-22.35113451 450.20472514 -22.30093963 446.41519655 -22.25 442.625 C-22.22993201 440.05079493 -22.21168177 437.476575 -22.1953125 434.90234375 C-22.15127745 428.60123822 -22.08438805 422.30068735 -22 416 C-22.56296783 416.00888245 -23.12593567 416.01776489 -23.70596313 416.0269165 C-29.57844871 416.1155807 -35.45074336 416.1758131 -41.32373047 416.21972656 C-43.51391324 416.23981107 -45.70404259 416.26708417 -47.89404297 416.30175781 C-51.04668376 416.35041409 -54.19861404 416.37300078 -57.3515625 416.390625 C-58.32678864 416.41127014 -59.30201477 416.43191528 -60.30679321 416.45318604 C-66.04230774 416.45506853 -69.57564749 416.0239624 -74 412 C-78.67818558 406.57792669 -78.56755079 401.96747389 -78.50793457 395.14453125 C-78.51729451 393.50160347 -78.51729451 393.50160347 -78.52684355 391.82548523 C-78.54280207 388.15427138 -78.53015743 384.48371882 -78.51757812 380.8125 C-78.52299794 378.18098564 -78.5301198 375.54947431 -78.53881836 372.91796875 C-78.55659815 366.51182462 -78.55276609 360.10586803 -78.5411678 353.69971657 C-78.53213159 348.49299201 -78.53091028 343.28631999 -78.53526306 338.07958984 C-78.53587599 337.33833831 -78.53648893 336.59708677 -78.53712043 335.83337307 C-78.53839934 334.32750065 -78.5396962 332.82162824 -78.5410108 331.31575584 C-78.55241501 317.19756672 -78.53930542 303.07948151 -78.51780933 288.96130943 C-78.49993847 276.84915425 -78.50304262 264.73715242 -78.52148438 252.625 C-78.54289393 238.55708797 -78.55131638 224.48926699 -78.53903532 210.42134094 C-78.53776113 208.92103069 -78.53650365 207.42072043 -78.53526306 205.92041016 C-78.53464596 205.1822428 -78.53402886 204.44407545 -78.53339306 203.68353939 C-78.5299404 198.48350271 -78.53576666 193.28352382 -78.54518127 188.08349609 C-78.55757584 181.08371389 -78.54874225 174.08422627 -78.52560425 167.08447266 C-78.52030882 164.51335126 -78.52184508 161.94220551 -78.53065491 159.37109375 C-78.54156035 155.86555436 -78.52790568 152.36094842 -78.50793457 148.85546875 C-78.51685746 147.83426437 -78.52578034 146.81306 -78.53497362 145.76091003 C-78.47104604 139.98899828 -77.92196996 136.54561032 -74 132 C-68.77882265 127.25132292 -64.0456937 127.46766296 -57.3515625 127.609375 C-56.33903412 127.61503479 -55.32650574 127.62069458 -54.28329468 127.62652588 C-51.06337323 127.64883746 -47.8445826 127.69902528 -44.625 127.75 C-42.43621404 127.77007169 -40.24741056 127.78832129 -38.05859375 127.8046875 C-32.70534622 127.84868495 -27.35275392 127.91554482 -22 128 C-22.00368717 127.39739035 -22.00737434 126.79478069 -22.01117325 126.17391014 C-22.09956793 111.50100423 -22.16573081 96.82811406 -22.20724869 82.1550045 C-22.22786092 75.0591309 -22.25595559 67.96343519 -22.30175781 60.86767578 C-22.34593318 54.02068012 -22.36913385 47.17386946 -22.37950897 40.32674026 C-22.38690336 37.71363032 -22.40134268 35.10053056 -22.42292023 32.48749924 C-22.45192977 28.8291711 -22.45595684 25.17160813 -22.45410156 21.51318359 C-22.47567322 19.89046036 -22.47567322 19.89046036 -22.49768066 18.23495483 C-22.46424795 12.1479958 -22.05959227 8.63383658 -18 4 C-12.72867143 -1.00776214 -6.89190982 -0.92775709 0 0 Z " fill="#FFFFFF" transform="translate(150,16)"/>
</svg>
