<?xml version="1.0" encoding="UTF-8"?>
<svg version="1.1" xmlns="http://www.w3.org/2000/svg" width="512" height="512">
<path d="M0 0 C1.01784753 -0.00170885 2.03569507 -0.0034177 3.08438647 -0.00517833 C6.49306645 -0.00847109 9.90154935 0.0025271 13.31021118 0.01345825 C15.75441483 0.01402241 18.19861882 0.01370571 20.64282227 0.01257324 C25.90404161 0.01211789 31.16519967 0.01778865 36.42640305 0.02904892 C44.03316417 0.04531864 51.63990132 0.05051343 59.24667795 0.0530249 C71.58883285 0.0573997 83.93096128 0.07070295 96.27310181 0.08963013 C108.26073067 0.10799451 120.24835234 0.12214828 132.23599243 0.13064575 C132.97519099 0.1311712 133.71438956 0.13169665 134.47598808 0.13223802 C138.18441389 0.13484813 141.89283976 0.13737554 145.60126567 0.13986182 C176.35534097 0.16058761 207.10938338 0.19595618 237.86343384 0.24050903 C237.86839906 1.21481605 237.86839906 1.21481605 237.87346458 2.20880604 C237.95487123 18.05193572 238.0470207 33.89496162 238.15096092 49.73795795 C238.20097071 57.39967691 238.24741441 65.0613858 238.28530884 72.72317505 C238.31836706 79.40527937 238.3582734 86.08730269 238.40622389 92.76931733 C238.43135223 96.30367434 238.45317288 99.83797857 238.4667778 103.37240028 C238.48213641 107.32894047 238.51279184 111.28528594 238.54458618 115.24172974 C238.54674637 116.39907623 238.54890656 117.55642273 238.5511322 118.74884033 C238.66704988 130.08916515 239.63391987 140.12364407 246.86343384 149.24050903 C256.50889786 158.68668661 268.1226383 159.37366122 280.93936157 159.4458313 C282.57949471 159.46068069 282.57949471 159.46068069 284.25276184 159.47583008 C287.85082873 159.50730488 291.44890881 159.53214693 295.04702759 159.55691528 C297.54809402 159.57749692 300.04915707 159.59849371 302.55021667 159.61988831 C308.45026071 159.66935894 314.35032513 159.71465638 320.25041777 159.75791067 C327.63122409 159.81227775 335.01197428 159.87316251 342.39273071 159.93386841 C355.54959351 160.04129702 368.70649429 160.14295693 381.86343384 160.24050903 C381.95500772 197.79593963 382.02548188 235.3513534 382.06769516 272.90687307 C382.07269793 277.34157157 382.07787522 281.77626985 382.0831604 286.21096802 C382.08420964 287.0938292 382.08525888 287.97669037 382.08633992 288.88630492 C382.10374078 303.17774904 382.13527671 317.46912873 382.17204502 331.76053464 C382.20946332 346.42700502 382.23167157 361.09344169 382.23978782 375.75995785 C382.24527375 384.80855506 382.26259482 393.85697017 382.29509971 402.90551133 C382.31625857 409.11211269 382.32263078 415.31862004 382.31743935 421.52525484 C382.31487968 425.10514072 382.31877788 428.6847086 382.34025574 432.26453781 C382.36339711 436.15011331 382.35536912 440.03527688 382.3444519 443.9209137 C382.35610327 445.04641882 382.36775464 446.17192394 382.37975907 447.33153528 C382.30227718 457.53706965 378.94141962 465.80537718 371.86343384 473.24050903 C365.66377384 478.12584111 359.33532461 480.48771679 351.40309429 480.49777794 C349.47066593 480.50745128 349.47066593 480.50745128 347.49919862 480.51732004 C346.07672059 480.51437801 344.65424296 480.51124259 343.23176575 480.50793457 C341.71507281 480.51167208 340.19838181 480.516274 338.68169385 480.52166522 C334.51682419 480.53389816 330.35203484 480.5336344 326.18715131 480.53127646 C321.69418753 480.53086837 317.20124951 480.54190669 312.70829773 480.5513916 C303.90688775 480.56800407 295.10550456 480.57350125 286.30408021 480.57461636 C279.14992912 480.57556669 271.99578686 480.57967625 264.84163857 480.58601761 C244.55846348 480.6036305 224.27530957 480.61285638 203.99212679 480.61135666 C202.35194062 480.61123679 202.35194062 480.61123679 200.67861938 480.6111145 C199.58382695 480.61103274 198.48903452 480.61095098 197.36106656 480.61086674 C179.6168765 480.61005377 161.87277131 480.62919406 144.12860581 480.65739124 C125.9091764 480.68611522 107.6897884 480.6999318 89.47033578 480.69820368 C79.24142486 480.69753963 69.01260292 480.70303885 58.78371239 480.72455978 C50.07489671 480.74276515 41.36621035 480.74712418 32.65738388 480.73354094 C28.21472709 480.72700811 23.77231844 480.72690542 19.32968521 480.74424744 C15.26022169 480.75996929 11.19120324 480.75712378 7.12175063 480.73967917 C5.65206023 480.73660732 4.18233668 480.74024874 2.71268537 480.75139932 C-5.45823483 480.8092727 -12.01235941 480.46482181 -19.13656616 476.24050903 C-19.94609741 475.77129028 -20.75562866 475.30207153 -21.58969116 474.81863403 C-28.26834537 469.88223744 -31.85728197 464.21186969 -34.13656616 456.24050903 C-34.31569712 453.75980328 -34.39114919 451.27061447 -34.39383507 448.78345108 C-34.39734114 448.05014655 -34.40084722 447.31684201 -34.40445954 446.56131613 C-34.41376747 444.10276249 -34.40885181 441.64444603 -34.4039917 439.18588257 C-34.40772827 437.40591544 -34.41232981 435.62594996 -34.41772234 433.84598708 C-34.42996699 428.95335063 -34.42969015 424.06078249 -34.42733359 419.16813421 C-34.4269258 413.89191475 -34.43796105 408.61571729 -34.44744873 403.33950806 C-34.46406786 393.00171175 -34.46955869 382.66393825 -34.47067349 372.3261297 C-34.47162355 363.92341778 -34.47573176 355.52071339 -34.48207474 347.11800385 C-34.49968982 323.29829327 -34.50891322 299.47860073 -34.50741379 275.6588836 C-34.50733388 274.37452117 -34.50725396 273.09015873 -34.50717163 271.76687622 C-34.50708987 270.48094675 -34.50700811 269.19501728 -34.50692387 267.87012026 C-34.50611094 247.02914501 -34.52524955 226.18824203 -34.55344836 205.34728768 C-34.58216975 183.9513895 -34.59598906 162.55552656 -34.59426081 141.1596086 C-34.59359664 129.14606027 -34.59910076 117.13258768 -34.62061691 105.1190567 C-34.63881889 94.89036877 -34.6431841 84.66179093 -34.62959807 74.43309382 C-34.62306343 69.21464952 -34.62296923 63.99641651 -34.64030457 58.77799225 C-34.65601826 53.99855333 -34.65318893 49.2194935 -34.6357363 44.44006392 C-34.63266267 42.71329178 -34.63631249 40.98649146 -34.64745645 39.25975254 C-34.71689434 27.73494304 -34.0975427 17.61349906 -25.83969116 8.77175903 C-18.0601561 1.77731467 -10.22517663 -0.06287072 0 0 Z " fill="#FFFFFF" transform="translate(82.13656616210938,15.759490966796875)"/>
<path d="M0 0 C7.87693998 6.75166284 7.87693998 6.75166284 11.55982971 10.39920044 C12.39378265 11.22310776 13.2277356 12.04701508 14.08695984 12.89588928 C14.97808975 13.7811882 15.86921967 14.66648712 16.78735352 15.57861328 C17.75384715 16.5355476 18.7205063 17.49231475 19.68731689 18.44892883 C22.83836757 21.56884903 25.98410173 24.694098 29.12890625 27.8203125 C29.93515949 28.62161976 29.93515949 28.62161976 30.75770068 29.43911505 C35.83744899 34.48810659 40.91515517 39.53914364 45.98803806 44.59503365 C52.44536038 51.03045956 58.91252798 57.45562353 65.39358765 63.86714566 C69.96826623 68.39441886 74.53124223 72.93328282 79.08589882 77.48069751 C81.79826746 80.18813761 84.51534316 82.89039858 87.24518013 85.58023453 C89.81536853 88.11324635 92.37060013 90.66047909 94.91566467 93.2187252 C96.28326109 94.58624299 97.66561488 95.9389543 99.04856873 97.29093933 C104.43977078 102.74501664 112 110.80890859 112 119 C75.04 119 38.08 119 0 119 C0 79.73 0 40.46 0 0 Z " fill="#FFFFFF" transform="translate(352,25)"/>
</svg>
